<?xml version="1.0" standalone="no"?>
<!DOCTYPE svg PUBLIC "-//W3C//DTD SVG 20010904//EN"
 "http://www.w3.org/TR/2001/REC-SVG-20010904/DTD/svg10.dtd">
<svg version="1.0" xmlns="http://www.w3.org/2000/svg"
 width="5000.000000pt" height="1000.000000pt" viewBox="0 0 5000.000000 1000.000000"
 preserveAspectRatio="xMidYMid meet">

<g transform="translate(0.000000,1000.000000) scale(0.100000,-0.100000)"
fill="#000000" stroke="none">
<path d="M0 5000 l0 -5000 25000 0 25000 0 0 5000 0 5000 -25000 0 -25000 0 0
-5000z m6278 4408 c-18 -23 -195 -207 -393 -408 -534 -542 -684 -708 -706
-781 -21 -74 -5 -695 22 -799 5 -20 24 -50 42 -68 29 -28 47 -35 121 -48 l87
-15 92 32 c51 17 133 49 182 71 50 22 116 51 148 64 93 39 234 121 337 194 52
38 114 79 137 92 58 33 226 182 256 226 53 81 55 98 61 587 2 149 4 389 5 535
2 268 8 295 31 144 7 -43 21 -117 32 -164 11 -47 24 -141 29 -210 10 -125 21
-239 60 -590 29 -271 48 -303 184 -308 123 -6 134 -3 510 143 33 13 123 52
200 88 77 35 208 89 290 120 83 30 202 78 265 107 63 28 165 69 225 90 61 21
148 52 195 69 47 17 92 31 100 30 8 0 -118 -66 -280 -147 -162 -81 -358 -183
-434 -226 -77 -44 -232 -124 -345 -179 -113 -55 -271 -135 -351 -178 -160 -85
-184 -92 -408 -105 -63 -3 -136 -12 -163 -19 -71 -19 -277 -134 -546 -304 -39
-25 -118 -75 -174 -111 -129 -81 -164 -111 -193 -168 l-23 -45 47 -63 c51 -68
70 -86 175 -159 39 -27 167 -119 285 -205 274 -199 330 -234 448 -280 229 -89
906 -421 970 -476 116 -99 102 -147 -145 -510 -105 -155 -182 -238 -255 -275
-42 -22 -197 -57 -613 -139 -137 -28 -286 -61 -330 -75 -102 -31 -197 -87
-245 -145 -39 -47 -271 -392 -332 -495 -180 -302 -476 -836 -515 -929 -13 -34
-89 -189 -168 -346 -78 -157 -166 -348 -194 -425 -29 -77 -84 -214 -123 -305
-38 -91 -91 -228 -118 -305 -61 -179 -91 -257 -96 -253 -8 8 -65 497 -66 565
-1 58 4 81 25 125 14 29 42 94 62 143 20 50 64 142 99 205 35 63 96 178 136
255 89 170 152 274 341 560 80 121 160 247 178 280 68 126 453 696 623 920
161 214 179 223 598 315 146 32 337 73 425 89 220 43 281 58 310 77 29 19 94
104 206 267 110 162 134 200 149 246 12 36 11 46 -2 75 -19 40 -73 67 -348
175 -52 21 -124 50 -160 66 -36 15 -108 42 -160 61 -178 61 -295 105 -340 128
-25 13 -68 31 -97 40 -51 17 -69 31 -124 98 -43 52 -160 142 -389 298 -107 73
-237 166 -288 207 -96 78 -171 113 -237 113 -39 0 -100 -22 -127 -46 -9 -9
-33 -16 -52 -16 -28 0 -42 7 -62 31 -37 44 -59 54 -137 58 -97 6 -197 -25
-243 -75 -32 -35 -34 -36 -67 -24 -18 7 -44 12 -57 12 -24 0 -90 -62 -90 -85
0 -8 -20 -39 -45 -69 -25 -31 -73 -95 -107 -143 -177 -249 -406 -483 -653
-669 -218 -163 -322 -244 -470 -369 -148 -124 -158 -132 -284 -199 -76 -41
-98 -49 -90 -34 9 17 6 25 -17 49 -15 15 -32 26 -37 22 -6 -3 -7 -1 -3 6 4 6
78 61 164 123 637 453 927 723 1248 1163 53 72 97 176 109 259 l7 47 -104 102
c-57 56 -155 140 -218 187 -103 77 -262 211 -443 374 -90 80 -192 144 -242
151 -42 7 -69 4 -405 -39 -371 -47 -433 -56 -643 -96 -218 -42 -258 -47 -241
-30 29 29 321 100 759 185 295 58 428 97 469 137 l29 29 -7 117 c-4 64 -11
226 -16 359 -6 133 -14 284 -19 335 -16 153 -23 345 -13 328 11 -17 57 -223
71 -320 6 -36 17 -117 26 -180 29 -206 84 -524 100 -574 21 -68 44 -101 122
-177 159 -153 272 -245 503 -409 79 -56 171 -124 205 -152 92 -75 194 -139
230 -145 78 -13 171 52 202 140 16 45 18 82 16 282 -2 127 -7 289 -11 361 l-8
130 -46 60 c-63 81 -287 325 -433 471 -477 478 -588 593 -583 598 15 15 248
-155 423 -310 44 -38 181 -153 305 -255 123 -102 257 -215 296 -252 40 -37 83
-70 97 -73 39 -10 146 47 234 124 42 36 114 103 162 147 227 214 546 493 664
583 73 54 152 115 177 135 60 47 69 45 28 -6z m29102 -2574 c25 -13 68 -46 97
-73 52 -52 88 -107 370 -566 88 -143 195 -314 238 -380 283 -433 327 -500 528
-795 79 -115 301 -434 357 -510 363 -502 380 -526 380 -552 0 -9 -9 -22 -19
-27 -10 -6 -127 -14 -258 -17 -413 -12 -504 19 -593 203 -80 166 -94 190 -133
231 -59 61 -118 76 -277 75 -69 0 -154 -7 -190 -14 -50 -9 -323 -13 -1185 -14
-1111 -2 -1120 -2 -1160 -23 -61 -31 -107 -86 -170 -202 -103 -188 -133 -219
-247 -253 -112 -34 -596 -18 -640 21 -40 34 -10 93 123 239 104 116 168 208
1188 1743 356 536 517 770 555 806 100 96 231 123 636 133 298 8 340 5 400
-25z m-19009 -5 c6 -13 6 -31 0 -57 -13 -44 -90 -198 -132 -259 -16 -24 -29
-46 -29 -49 0 -3 -9 -17 -19 -32 -34 -48 -351 -561 -351 -567 0 -3 -71 -123
-109 -185 -6 -8 -92 -154 -193 -323 -101 -170 -193 -325 -206 -345 -12 -20
-25 -44 -29 -52 -3 -8 -18 -33 -32 -55 -30 -47 -16 -24 -174 -290 -69 -115
-146 -250 -172 -300 -89 -167 -128 -230 -182 -287 -94 -98 -81 -96 -573 -100
l-425 -3 -32 24 c-35 26 -68 71 -116 160 -17 31 -62 101 -101 156 -76 108
-138 201 -149 225 -4 8 -32 56 -64 105 -31 50 -79 128 -106 175 -27 47 -58 99
-68 115 -10 17 -30 50 -44 75 -14 25 -38 68 -55 95 -17 28 -33 57 -37 65 -3 8
-19 34 -35 57 -15 23 -28 44 -28 47 0 6 -111 196 -164 281 -57 93 -70 113
-371 625 -131 223 -249 419 -261 435 -55 74 -104 171 -104 207 0 62 7 63 332
61 271 -2 290 -3 330 -24 44 -22 128 -96 128 -113 0 -5 6 -17 14 -25 16 -19
556 -939 556 -948 0 -4 6 -14 14 -22 7 -9 26 -38 41 -66 16 -27 33 -59 39 -70
6 -11 23 -38 37 -60 14 -22 28 -47 32 -55 4 -8 18 -33 32 -55 14 -22 28 -47
31 -55 4 -8 13 -22 19 -30 7 -8 25 -37 40 -65 14 -27 34 -62 43 -77 18 -28 78
-130 96 -163 7 -11 23 -38 37 -60 25 -40 62 -105 134 -240 52 -97 101 -180
148 -247 64 -93 95 -78 209 94 54 81 158 255 158 263 0 2 15 30 34 62 18 32
45 78 58 103 14 25 34 61 45 80 11 19 69 121 128 225 106 186 276 476 320 545
12 19 139 230 281 469 143 238 278 455 301 481 53 59 97 74 177 60 31 -6 82
-14 113 -20 101 -18 277 -5 363 28 31 12 58 4 71 -19z m11180 19 c40 -9 347
-12 1149 -13 758 -1 1127 -5 1200 -13 58 -6 152 -16 210 -21 305 -30 615 -95
876 -185 56 -19 110 -39 120 -44 11 -6 46 -21 79 -34 33 -13 80 -34 105 -47
25 -13 68 -35 95 -49 122 -62 342 -217 421 -297 121 -123 207 -283 256 -475
32 -127 31 -379 -2 -505 -80 -304 -295 -569 -635 -781 -89 -55 -347 -184 -369
-184 -4 0 -22 -7 -39 -15 -51 -23 -118 -46 -165 -56 -24 -5 -48 -11 -54 -15
-5 -3 -37 -13 -71 -21 -94 -22 -162 -35 -397 -78 -155 -29 -296 -47 -437 -55
-79 -5 -150 -13 -156 -17 -7 -5 -520 -11 -1142 -14 -823 -4 -1168 -9 -1270
-19 -131 -12 -143 -12 -179 5 -58 28 -62 52 -31 172 26 97 27 107 17 200 -10
88 -18 758 -24 2023 -2 373 0 408 16 439 46 86 99 109 257 110 64 1 141 -4
170 -11z m10444 -8 c22 -6 154 -10 293 -10 244 0 255 -1 312 -24 75 -31 171
-93 312 -203 142 -111 170 -131 518 -372 157 -108 323 -223 370 -255 47 -33
121 -84 165 -114 44 -31 123 -85 175 -121 92 -63 522 -360 645 -446 33 -23 98
-68 145 -100 771 -529 912 -630 970 -690 81 -84 127 -91 149 -23 8 27 6 49
-14 117 l-24 85 10 285 c11 305 6 1735 -6 1787 -5 24 -2 36 17 59 l24 28 180
-10 c165 -8 261 -6 436 13 65 6 68 6 97 -24 27 -27 31 -37 31 -85 0 -31 -7
-89 -15 -131 -25 -133 -28 -305 -16 -961 6 -352 13 -840 15 -1085 3 -301 8
-465 16 -507 16 -82 4 -115 -51 -137 -49 -20 -71 -20 -179 0 -68 12 -164 14
-475 13 -419 -2 -389 -5 -505 50 -32 15 -296 188 -476 313 -152 105 -332 227
-729 493 -780 523 -1521 1020 -1592 1067 -40 26 -100 77 -134 113 -40 41 -71
65 -85 65 -46 0 -48 -12 -38 -298 9 -280 11 -763 3 -1242 -4 -281 1 -354 37
-496 3 -11 -3 -30 -13 -43 -18 -23 -20 -23 -277 -22 -156 1 -290 -3 -337 -10
-135 -21 -178 14 -178 147 5 2675 4 2668 21 2706 30 68 103 93 203 68z
m-16768 -38 c29 -15 44 -31 52 -54 6 -18 12 -128 13 -245 l3 -211 -28 -30
c-48 -51 -86 -57 -265 -43 -109 8 -607 12 -1632 14 l-1475 2 -36 -24 c-19 -14
-46 -43 -60 -65 -23 -40 -24 -45 -21 -241 l2 -200 28 -40 c41 -58 95 -72 222
-55 71 10 385 14 1250 17 750 2 1237 7 1390 15 341 19 474 16 530 -9 25 -11
56 -33 70 -48 22 -24 25 -34 23 -98 -1 -40 -9 -139 -18 -222 -16 -134 -20
-152 -42 -172 l-24 -23 -1562 0 c-1346 0 -1570 2 -1617 15 -30 8 -87 15 -126
15 -64 0 -73 -2 -96 -27 -51 -55 -56 -145 -22 -415 6 -55 32 -103 66 -123 29
-17 113 -18 1715 -14 l1685 4 19 -24 c16 -20 19 -40 19 -140 1 -64 7 -145 15
-181 39 -176 -5 -283 -109 -265 -22 4 -66 10 -96 14 -30 4 -914 6 -1965 4
-1707 -3 -1916 -5 -1971 -19 -71 -19 -94 -11 -119 36 -24 47 -29 171 -11 312
14 108 16 268 16 1095 0 624 -4 999 -11 1053 -25 204 -10 340 44 398 l22 24
2040 -4 2040 -4 42 -22z m3727 18 c348 -12 525 -25 626 -46 340 -72 562 -219
678 -450 55 -110 76 -204 76 -349 0 -159 -20 -244 -94 -398 -45 -95 -59 -113
-138 -188 -87 -83 -166 -140 -247 -179 -79 -38 -209 -80 -250 -80 -68 -1 -167
-34 -179 -59 -9 -21 7 -40 190 -219 173 -170 655 -665 824 -845 36 -39 50 -61
43 -68 -6 -6 -148 -9 -409 -7 -499 4 -454 -12 -672 228 -173 190 -457 496
-595 643 -156 166 -212 206 -336 241 -55 15 -130 17 -808 15 l-747 -2 -24 -24
c-23 -23 -24 -30 -18 -91 3 -37 9 -270 12 -519 7 -416 6 -454 -10 -478 -25
-38 -55 -46 -112 -29 -70 21 -290 28 -409 14 -55 -7 -119 -14 -143 -17 -78 -9
-119 46 -101 138 4 24 8 647 9 1384 1 1178 2 1342 16 1360 12 17 31 21 112 26
169 10 2404 9 2706 -1z m22566 -15 c19 -17 20 -29 20 -268 0 -238 -1 -250 -21
-279 l-21 -30 -807 8 c-444 4 -824 4 -844 0 -48 -9 -102 -57 -118 -103 -9 -28
-9 -275 1 -1089 11 -847 11 -1056 0 -1068 -25 -31 -86 -38 -355 -43 -268 -5
-270 -5 -320 18 -75 36 -95 73 -95 178 0 89 13 741 30 1507 12 499 9 525 -47
575 l-34 29 -207 -1 c-114 0 -435 -4 -714 -8 -279 -4 -535 -4 -568 0 -70 8
-104 32 -114 82 -4 17 -3 130 0 250 7 198 9 221 27 244 l20 26 2073 -5 c2001
-4 2074 -5 2094 -23z m-41766 -461 c65 -28 84 -41 93 -64 13 -35 59 -50 152
-50 83 0 290 -20 316 -30 11 -5 -160 -8 -380 -8 l-400 0 -57 42 c-31 22 -57
46 -57 53 -2 28 147 91 217 92 18 1 70 -15 116 -35z m30844 -3529 c16 -6 18
-1300 1 -1310 -8 -6 -100 -9 -146 -6 -17 1 -19 1301 -3 1317 9 9 117 8 148 -1z
m2991 -4 c3 -5 4 -38 1 -73 l-5 -63 -424 -3 c-304 -1 -428 -6 -438 -14 -11 -9
-14 -48 -11 -199 2 -103 7 -191 11 -196 5 -4 189 -10 410 -13 l402 -5 0 -70 0
-70 -399 -3 c-274 -1 -403 -6 -413 -13 -16 -14 -19 -372 -3 -413 l9 -26 438
-2 438 -3 3 -64 c2 -35 -1 -68 -5 -72 -8 -8 -1041 -14 -1050 -6 -8 9 -3 1311
6 1316 16 10 1024 2 1030 -8z m3403 1 c5 -5 8 -38 6 -73 l-3 -64 -424 -3
c-293 -1 -428 -6 -438 -13 -10 -9 -13 -53 -13 -193 0 -99 5 -188 10 -196 8
-13 69 -16 412 -20 l403 -5 0 -70 0 -70 -399 -3 c-274 -1 -403 -6 -413 -13
-18 -16 -19 -397 0 -422 11 -15 52 -17 447 -19 l435 -3 0 -70 0 -70 -515 -5
c-283 -3 -523 -1 -532 3 -17 7 -18 48 -18 657 0 552 2 650 14 657 20 11 1017
6 1028 -5z m2540 5 c9 -10 12 -32 8 -78 l-5 -64 -241 -3 c-186 -2 -244 -5
-253 -16 -7 -9 -12 -188 -13 -586 l-3 -574 -72 1 c-40 1 -77 4 -83 8 -7 4 -10
197 -10 574 0 470 -2 571 -14 580 -19 16 -1003 16 -1022 0 -12 -9 -14 -109
-14 -580 0 -417 -3 -570 -12 -575 -11 -7 -139 -6 -146 1 -2 1 -3 257 -2 567 0
443 -2 567 -12 581 -12 15 -40 17 -258 19 l-245 3 0 70 0 70 1185 5 c652 3
1188 6 1192 8 4 1 13 -4 20 -11z m1236 1 c12 -12 17 -104 6 -132 -5 -14 -53
-16 -428 -16 -315 0 -425 -3 -434 -12 -18 -18 -17 -382 1 -397 10 -7 139 -12
413 -13 l399 -3 1 -55 c2 -100 45 -90 -401 -90 -216 0 -400 -3 -409 -6 -14 -5
-16 -34 -16 -213 0 -148 3 -210 12 -219 9 -9 120 -12 438 -12 254 0 430 -4
436 -9 5 -6 7 -39 6 -75 l-4 -66 -512 -2 c-282 -2 -520 -2 -529 0 -16 3 -17
52 -15 660 l3 657 505 5 c278 3 507 6 511 8 3 1 10 -3 17 -10z m-10893 -24
c128 -51 186 -107 218 -215 19 -64 21 -114 7 -188 -19 -100 -65 -164 -152
-215 -27 -15 -48 -33 -48 -41 0 -13 8 -17 60 -29 68 -15 114 -107 124 -251 12
-157 28 -279 42 -314 8 -19 12 -37 9 -40 -12 -11 -170 1 -184 14 -9 9 -16 58
-23 152 -19 294 -56 374 -186 402 -32 7 -163 11 -332 11 -266 0 -280 -1 -290
-19 -6 -12 -10 -123 -10 -290 0 -148 -3 -272 -7 -274 -5 -2 -41 -2 -80 1 l-73
4 0 652 c0 359 3 656 7 660 4 4 201 5 438 3 399 -3 434 -5 480 -23z m1995 -1
c144 -47 226 -100 293 -192 77 -104 112 -219 122 -396 17 -284 -93 -520 -285
-611 -96 -46 -123 -54 -255 -75 -104 -17 -165 -19 -455 -17 l-335 3 -2 645
c-2 355 -1 651 2 658 4 11 86 12 427 10 396 -4 427 -5 488 -25z m3582 -5 c76
-36 127 -83 154 -143 20 -41 24 -67 24 -143 0 -132 -30 -189 -138 -258 -29
-19 -52 -39 -50 -45 2 -6 30 -21 62 -34 112 -45 166 -126 174 -257 6 -101 -13
-191 -52 -248 -59 -88 -96 -110 -235 -141 -73 -16 -130 -19 -477 -19 -217 -1
-399 2 -404 5 -12 7 -14 1298 -2 1309 3 4 204 6 447 4 l440 -3 57 -27z m6541
4 c108 -42 156 -82 203 -172 15 -28 19 -57 18 -150 0 -99 -4 -121 -23 -160
-29 -56 -77 -108 -116 -124 -46 -20 -68 -45 -54 -62 6 -8 20 -14 32 -14 27 0
81 -35 101 -64 23 -37 46 -163 56 -310 5 -75 16 -151 25 -179 10 -26 14 -51
11 -54 -7 -7 -176 -7 -183 0 -8 8 -23 129 -33 264 -15 205 -56 274 -178 301
-65 15 -590 16 -612 2 -13 -8 -15 -52 -16 -287 l-2 -278 -63 -6 c-35 -3 -72
-3 -81 -1 -17 4 -18 44 -18 664 l0 659 438 -3 c424 -4 439 -5 495 -26z m778
-1109 c0 -10 2 -49 3 -88 4 -102 5 -101 -105 -95 l-94 5 -3 84 c-2 46 -1 90 2
98 4 9 30 13 101 13 84 0 95 -2 96 -17z"/>
<path d="M5972 4645 c-33 -36 -73 -90 -88 -121 -31 -59 -29 -66 25 -81 21 -5
31 1 61 35 52 58 105 161 91 175 -6 6 -11 19 -11 28 0 36 -20 27 -78 -36z"/>
<path d="M34836 6406 c-17 -19 -60 -92 -95 -163 -117 -232 -365 -606 -631
-953 -132 -172 -160 -214 -160 -244 0 -39 48 -86 103 -100 48 -12 79 -10 367
24 255 30 824 33 980 5 41 -8 129 -19 195 -26 136 -14 213 -4 252 33 47 44 34
70 -137 298 -200 266 -395 558 -491 737 -112 209 -180 313 -249 377 -61 57
-90 60 -134 12z"/>
<path d="M27899 6280 l-26 -19 4 -730 c4 -631 2 -748 -12 -865 -26 -220 -12
-234 234 -221 80 4 466 11 856 15 396 5 754 13 810 20 377 42 461 56 650 107
50 13 106 28 125 33 93 23 269 98 358 151 298 182 468 467 432 722 -22 151
-65 240 -174 354 -129 137 -282 230 -477 292 -57 18 -117 37 -134 43 -70 23
-254 59 -395 77 -41 6 -118 16 -170 23 -68 8 -371 13 -1075 15 -960 3 -981 2
-1006 -17z"/>
<path d="M22890 6270 c-22 -31 -22 -32 -11 -238 6 -114 11 -251 11 -304 0
-148 -55 -134 546 -143 571 -8 1486 -1 1554 13 25 5 79 15 120 21 96 15 214
45 265 66 64 27 142 91 171 141 54 92 30 217 -60 302 -37 36 -152 98 -198 107
-18 3 -62 12 -98 20 -167 36 -244 39 -1267 42 l-1011 4 -22 -31z"/>
<path d="M35136 2685 c-20 -10 -21 -20 -24 -232 -2 -219 -2 -222 19 -234 16
-8 101 -10 303 -6 228 3 291 7 335 21 69 22 112 51 142 95 21 30 24 46 24 126
0 80 -3 96 -24 126 -62 91 -137 108 -485 111 -170 2 -277 -1 -290 -7z"/>
<path d="M37123 2652 c-5 -12 -6 -240 -3 -509 l5 -488 270 -3 c305 -3 394 8
497 61 113 58 189 169 210 305 16 103 4 314 -22 381 -38 98 -106 174 -190 213
-119 55 -94 51 -437 56 -318 4 -323 4 -330 -16z"/>
<path d="M40681 2662 c-10 -8 -13 -49 -13 -196 0 -102 3 -190 7 -196 10 -16
567 -12 637 4 108 26 158 87 158 193 0 72 -28 125 -88 168 l-44 30 -321 3
c-183 1 -328 -1 -336 -6z"/>
<path d="M40675 2090 c-4 -6 -7 -103 -7 -216 -1 -167 1 -207 13 -215 8 -5 141
-9 297 -9 312 0 383 9 454 59 58 42 81 94 77 177 -5 85 -41 146 -109 184 l-45
25 -337 3 c-232 2 -338 0 -343 -8z"/>
<path d="M47232 2673 c-4 -10 -7 -112 -7 -226 0 -197 1 -209 20 -224 31 -23
569 -13 640 12 90 32 125 61 154 125 28 61 27 132 -3 196 -29 63 -66 90 -156
115 -61 17 -103 19 -355 19 -263 0 -286 -1 -293 -17z"/>
</g>
</svg>
